<?xml version="1.0" encoding="UTF-8"?>
<!DOCTYPE svg PUBLIC "-//W3C//DTD SVG 1.1//EN" "http://www.w3.org/Graphics/SVG/1.1/DTD/svg11.dtd">
<!-- Creator: CorelDRAW X7 -->
<svg xmlns="http://www.w3.org/2000/svg" xml:space="preserve" width="210mm" height="297mm" version="1.1" style="shape-rendering:geometricPrecision; text-rendering:geometricPrecision; image-rendering:optimizeQuality; fill-rule:evenodd; clip-rule:evenodd"
viewBox="0 0 21000 29700"
 xmlns:xlink="http://www.w3.org/1999/xlink">
 <defs>
  <style type="text/css">
   <![CDATA[
    .fil0 {fill:black}
   ]]>
  </style>
 </defs>
 <g id="Camada_x0020_1">
  <metadata id="CorelCorpID_0Corel-Layer"/>
  <path class="fil0" d="M9513 20425l3255 0c-1995,-630 -3507,-4137 -3507,-8316 0,-399 21,-819 42,-1218 63,-987 231,-1911 462,-2793 210,-777 462,-1470 777,-2079 651,-1260 1491,-2058 2373,-2268 -735,-84 -2289,-210 -4011,-42 -189,21 -378,42 -567,63 0,21 21,21 21,42l252 567c42,105 0,231 -105,273 -21,21 -63,21 -84,21 -84,0 -147,-42 -189,-126l-252 -567c-21,-63 -21,-126 0,-168 -63,0 -126,21 -168,21l42 0c-399,63 -798,273 -1155,567 42,21 84,42 105,84l924 1575c63,105 21,231 -84,294 -42,21 -63,21 -105,21 -63,0 -147,-42 -189,-105l-924 -1575c-21,-21 -21,-42 -21,-63 -1344,1344 -2289,4200 -2289,7476 0,3528 1071,6531 2562,7749 -21,-42 0,-105 21,-168 63,-105 189,-126 294,-63l903 567c84,42 105,147 84,231 63,0 126,0 189,0l231 0 672 0c-21,-63 -21,-126 0,-189l798 -1281c63,-105 189,-126 294,-63 105,63 126,189 63,294l-714 1239zm-525 -15939l1659 -756c105,-42 231,0 273,105 42,105 0,231 -105,273l-1659 756c-21,21 -63,21 -84,21 -84,0 -147,-42 -189,-126 -63,-105 0,-231 105,-273zm-882 1659l1575 -924c105,-63 231,-21 294,84 63,105 21,231 -84,294l-1575 924c-42,21 -63,21 -105,21 -63,0 -147,-42 -189,-105 -42,-126 -21,-252 84,-294zm-630 1680l1491 -1071c84,-63 231,-42 294,42 63,84 42,231 -42,294l-1491 1071c-42,21 -84,42 -126,42 -63,0 -126,-21 -168,-84 -63,-84 -42,-210 42,-294zm819 567c84,-84 210,-84 294,21 84,84 84,210 -21,294l-1344 1239c-42,42 -84,63 -147,63 -63,0 -105,-21 -147,-63 -84,-84 -84,-210 21,-294l1344 -1260zm-1491 4935l1176 -1407c84,-84 210,-105 294,-21 84,84 105,210 21,294l-1176 1407c-42,42 -105,84 -168,84 -42,0 -84,-21 -126,-42 -84,-105 -84,-231 -21,-315zm-42 -1848l1302 -1302c84,-84 210,-84 294,0 84,84 84,210 0,294l-1302 1302c-42,42 -105,63 -147,63 -42,0 -105,-21 -147,-63 -84,-84 -84,-210 0,-294zm294 3675l1008 -1533c63,-105 189,-126 294,-63 105,63 126,189 63,294l-1008 1533c-42,63 -105,84 -168,84 -42,0 -84,-21 -126,-42 -84,-42 -126,-189 -63,-273zm-1302 -8925c84,-63 231,-42 294,42l1071 1491c63,84 42,231 -42,294 -42,21 -84,42 -126,42 -63,0 -126,-21 -168,-84l-1071 -1491c-63,-84 -42,-231 42,-294zm-714 2037c84,-84 210,-84 294,21l1239 1344c84,84 84,210 -21,294 -42,42 -84,63 -147,63 -63,0 -105,-21 -147,-63l-1239 -1344c-63,-105 -63,-231 21,-315zm-231 1932c84,-84 210,-84 294,0l1302 1302c84,84 84,210 0,294 -42,42 -105,63 -147,63 -42,0 -105,-21 -147,-63l-1302 -1302c-84,-84 -84,-210 0,-294zm-84 2016c84,-84 210,-105 294,-21l1407 1176c84,84 105,210 21,294 -42,42 -105,84 -168,84 -42,0 -84,-21 -126,-42l-1407 -1176c-84,-84 -84,-231 -21,-315zm168 2058c63,-105 189,-126 294,-63l1533 1008c105,63 126,189 63,294 -42,63 -105,84 -168,84 -42,0 -84,-21 -126,-42l-1533 -1008c-105,-63 -126,-189 -63,-273zm399 1932c63,-105 189,-126 294,-84l1575 924c105,63 126,189 84,294 -42,63 -105,105 -189,105 -42,0 -63,0 -105,-21l-1575 -924c-105,-63 -147,-189 -84,-294zm2646 2793c-42,84 -105,126 -189,126 -21,0 -63,0 -84,-21l-1638 -798c-105,-42 -147,-168 -105,-273 42,-105 168,-147 273,-105l1638 798c105,42 147,168 105,273zm-63 -1806c-42,63 -105,105 -189,105 -42,0 -63,0 -105,-21 -105,-63 -126,-189 -84,-294l924 -1575c63,-105 189,-126 294,-84 105,63 126,189 84,294l-924 1575zm1491 -42l-798 1638c-42,84 -105,126 -189,126 -21,0 -63,0 -84,-21 -105,-42 -147,-168 -105,-273l798 -1638c42,-105 168,-147 273,-105 126,42 168,168 105,273z"/>
  <path class="fil0" d="M14007 3940c-147,-42 -294,-63 -378,-63l0 0c-1008,0 -1953,798 -2688,2226 -315,588 -567,1281 -777,2037 -231,861 -378,1785 -441,2751 -21,399 -42,798 -42,1197 0,4536 1764,8211 3948,8211l0 0c63,0 147,0 210,0 1932,-630 3423,-4074 3423,-8232 0,-4011 -1386,-7371 -3255,-8127zm-2331 8148c0,-2583 693,-4683 1533,-4683 840,0 1533,2100 1533,4683 0,2583 -693,4683 -1533,4683 -840,0 -1533,-2100 -1533,-4683zm1533 5733c-84,0 -168,-63 -168,-168 0,-105 63,-168 168,-168 819,0 1575,-1344 1911,-3360 21,-84 84,-147 189,-126 84,21 147,105 126,189 -357,2226 -1239,3633 -2226,3633z"/>
 </g>
</svg>
